<svg viewBox="0 0 512 512" xmlns="http://www.w3.org/2000/svg">
  <path
    d="m72.477 368.711a24.04 24.04 0 0 0 -5.472-33.5l4.671-6.493a8 8 0 0 0 -12.992-9.344l-4.67 6.491a24 24 0 1 0 -28.026 38.962l-4.676 6.5a8 8 0 0 0 12.993 9.344l4.673-6.5a23.8 23.8 0 0 0 13.963 4.529 24.512 24.512 0 0 0 3.914-.32 23.856 23.856 0 0 0 15.622-9.669zm-37.149-16.875a8 8 0 0 1 9.344-12.984l-9.341 12.985zm24.16 7.531a7.945 7.945 0 0 1 -5.207 3.219 7.735 7.735 0 0 1 -5.957-1.4l9.34-12.986a8.021 8.021 0 0 1 1.824 11.167z"/>
  <path
    d="m403.715 476.281a8 8 0 0 0 11.312 0l5.658-5.656a24 24 0 0 0 33.938-33.936l5.659-5.658a8 8 0 0 0 -11.312-11.312l-5.657 5.656c-9.071-9.063-24.878-9.063-33.941 0a24.019 24.019 0 0 0 0 33.936l-5.659 5.658a8 8 0 0 0 .002 11.312zm39.594-16.969a8.162 8.162 0 0 1 -11.305 0l11.309-11.312a8.007 8.007 0 0 1 -.004 11.312zm-22.618-22.624a7.992 7.992 0 0 1 11.309 0l-11.313 11.312a8.007 8.007 0 0 1 .004-11.312z"/>
  <path
    d="m66.75 469.266a24.06 24.06 0 0 0 33.939-.007l5.655 5.655a8 8 0 0 0 11.312-11.314l-5.656-5.659a24 24 0 0 0 -33.941-33.941l-5.659-5.656a8 8 0 0 0 -11.31 11.312l5.656 5.657a24.035 24.035 0 0 0 .004 33.953zm11.309-11.321a8.013 8.013 0 0 1 0-11.319l11.315 11.315a8.019 8.019 0 0 1 -11.315.004zm11.312-22.633a8 8 0 0 1 11.317 11.313l-11.317-11.312z"/>
  <path
    d="m349.242 167.961a24.029 24.029 0 0 0 33.815-2.87l6.115 5.159a8 8 0 0 0 10.32-12.234l-6.117-5.161a24 24 0 0 0 -36.694-30.947l-6.111-5.155a8 8 0 0 0 -10.32 12.234l6.115 5.159a24.029 24.029 0 0 0 2.877 33.815zm10.317-12.227a8.018 8.018 0 0 1 -.961-11.275l12.226 10.313a8.021 8.021 0 0 1 -11.265.962zm14.8-26.32a6.885 6.885 0 0 1 .688-.031 7.994 7.994 0 0 1 6.105 13.148v.008l-12.228-10.315a7.957 7.957 0 0 1 5.431-2.81z"/>
  <path
    d="m472 16h-448a8 8 0 0 0 -8 8v32a8 8 0 0 0 8 8h224v70.7a46.032 46.032 0 0 0 -16.048-5.979 40.02 40.02 0 0 0 -39.952-39.521h-32a8 8 0 0 0 -8 8v16a40.047 40.047 0 0 0 40 40h32a8 8 0 0 0 8-8v-.007a30.355 30.355 0 0 1 13.656 7.781l2.344 2.338v5.351a64.257 64.257 0 0 0 -51.116 39.337h-1.122a43.813 43.813 0 0 0 -43.762 43.758v9.011a43.771 43.771 0 0 0 -24 38.989v5.377a31.846 31.846 0 0 0 0 61.729v5.378a43.771 43.771 0 0 0 24 38.989v9.011a43.813 43.813 0 0 0 43.762 43.758h1.122a63.684 63.684 0 0 0 118.232 0h1.122a43.813 43.813 0 0 0 43.762-43.758v-9.011a43.771 43.771 0 0 0 24-38.989v-5.377a31.846 31.846 0 0 0 0-61.729v-5.378a43.771 43.771 0 0 0 -24-38.989v-9.011a43.813 43.813 0 0 0 -43.762-43.758h-1.122a64.257 64.257 0 0 0 -51.116-39.337v-96.663h208a24 24 0 0 0 0-48zm-256 121.2h-24a24.026 24.026 0 0 1 -24-24v-8h24a24.027 24.027 0 0 1 24 24zm-96 190.8a16.03 16.03 0 0 1 16-16h58.106a61.832 61.832 0 0 0 0 32h-58.106a16.019 16.019 0 0 1 -16-16zm184 0a48 48 0 1 1 -48-48 48.052 48.052 0 0 1 48 48zm-48 152a48.355 48.355 0 0 1 -41.562-24h83.124a48.355 48.355 0 0 1 -41.562 24zm88-67.758a27.791 27.791 0 0 1 -27.762 27.758h-120.476a27.791 27.791 0 0 1 -27.762-27.758v-4.433c1.243.107 2.492.191 3.762.191h168.476c1.27 0 2.519-.084 3.762-.191zm24-48a27.791 27.791 0 0 1 -27.762 27.758h-168.476a27.791 27.791 0 0 1 -27.762-27.758v-4.242h56.66a63.852 63.852 0 0 0 110.68 0h56.66zm24-36.242a16.03 16.03 0 0 1 -16 16h-58.106a61.832 61.832 0 0 0 0-32h58.106a16.019 16.019 0 0 1 16 16zm-24-32h-56.66a63.852 63.852 0 0 0 -110.68 0h-56.66v-4.242a27.791 27.791 0 0 1 27.762-27.758h168.476a27.791 27.791 0 0 1 27.762 27.758zm-24-52.242v4.433c-1.243-.107-2.492-.191-3.762-.191h-168.476c-1.27 0-2.519.084-3.762.191v-4.433a27.791 27.791 0 0 1 27.762-27.758h120.476a27.791 27.791 0 0 1 27.762 27.758zm-46.438-43.758h-83.124a47.987 47.987 0 0 1 83.124 0zm-265.562-168h417.474a23.731 23.731 0 0 0 -1.474 8 23.707 23.707 0 0 0 1.475 8h-417.475zm440 16a8 8 0 1 1 8-8 8.008 8.008 0 0 1 -8 8z"/>
  <path d="m112 184h16v16h-16z"/>
  <path d="m88 240h16v16h-16z"/>
  <path d="m40 208h16v16h-16z"/>
  <path d="m448 280h16v16h-16z"/>
  <path d="m416 248h16v16h-16z"/>
</svg>
